<svg width="155" height="226" viewBox="0 0 155 226" fill="none" xmlns="http://www.w3.org/2000/svg">
<g clip-path="url(#clip0_171_1564)">
<path d="M104.986 200.584C105.869 200.324 106.223 200.439 106.544 200.245C125.264 180.814 136.569 155.043 138.301 121.932C138.753 113.573 137.597 105.09 135.108 96.919C129.883 79.3529 117.619 68.2529 104.117 68.7377C97.0756 68.9357 90.4459 70.8093 84.948 76.7814C84.9891 81.3211 85.1426 85.8476 84.9248 90.1043C84.545 97.0439 82.5676 102.917 78.3287 106.861C75.2424 109.887 71.8682 110.282 69.7979 108.017C67.0805 105.045 66.6065 100.712 67.6793 96.9824C69.162 91.7941 71.1285 86.8625 73.2414 82.2271C74.6237 79.2445 76.6192 76.6601 78.3897 74.1021C74.5648 56.8421 61.7179 50.8251 48.1173 59.7836C47.9383 62.3119 47.7762 64.9949 47.4847 67.5364C46.234 76.9286 42.8344 84.3787 36.4417 88.4185C33.9903 89.9593 31.2293 90.7529 28.6244 87.7671C26.6665 85.4892 26.1925 81.1569 27.518 76.6138C29.6974 69.4633 33.559 64.153 37.8257 59.4221C39.3604 57.8319 40.8951 56.2418 42.4467 54.8064C37.2349 27.993 17.4779 10.8756 1.34239 23.7353C1.23479 21.7107 0.936101 20.0219 1.28441 19.0409C1.72827 17.8919 2.89773 17.1281 3.87611 16.7001C13.1653 13.1046 22.2197 13.611 30.5799 22.3476C36.8696 28.8193 41.5292 37.0491 45.0869 46.6617C45.5767 48.0147 46.0665 49.3677 46.6687 50.7075C46.6856 50.8622 46.9275 50.9906 47.4281 51.4021C48.4234 51.1288 49.6606 50.9838 50.8639 50.5295C65.5795 45.5148 74.0619 50.1626 83.1511 68.6864C84.433 67.9094 85.9399 67.106 87.3174 66.1611C95.5375 61.1238 104.164 59.7998 113.377 62.795C128.371 67.6202 139.439 83.4049 142.788 104.638C144.62 116.177 144.376 127.488 142.525 138.675C137.962 165.693 128.067 187.694 111.319 203.29C110.504 204.169 109.56 204.906 108.745 205.785C108.649 205.953 108.571 206.276 108.335 207.244C112.294 208.033 115.842 207.148 119.408 206.417C122.877 205.853 126.426 204.968 130.216 204.21C130.318 208.273 128.913 210.004 127.103 211.157C124.955 212.348 122.841 213.85 120.608 214.268C114.569 215.289 108.4 216.168 102.163 216.429C97.2762 216.531 95.5372 213.131 97.0816 207.465C100.44 195.475 103.911 183.472 107.382 171.469C107.967 169.52 108.81 167.854 109.81 165.543C112.319 168.697 111.69 171.278 111.157 173.691C108.922 182.415 107.024 191.099 104.986 200.584ZM31.4906 82.7301C39.0988 80.4285 43.1902 73.0541 42.478 63.4216C37.8122 68.6694 33.3206 73.4267 31.4906 82.7301ZM72.1296 102.259C78.5284 99.3158 81.0004 92.7579 79.293 83.3987C75.5608 88.8506 72.3571 93.9271 72.1296 102.259Z" fill="#6736C3"/>
</g>
<defs>
<clipPath id="clip0_171_1564">
<rect width="131.93" height="211.161" fill="white" transform="matrix(0.993209 -0.116348 0.10876 0.994068 0.5 16.0359)"/>
</clipPath>
</defs>
</svg>
