<svg width="31" height="30" viewBox="0 0 31 30" fill="none" xmlns="http://www.w3.org/2000/svg">
<path fill-rule="evenodd" clip-rule="evenodd" d="M15.4948 0.118652C11.956 0.120488 8.53324 1.37385 5.83856 3.65464C3.14388 5.93542 1.35298 9.09488 0.786083 12.5681C0.219189 16.0413 0.913264 19.6018 2.74421 22.6128C4.57516 25.6239 7.42359 27.8892 10.7802 29.0038C11.5207 29.1412 11.7996 28.6822 11.7996 28.292C11.7996 27.9018 11.7848 26.7703 11.7798 25.5333C7.63297 26.4292 6.7567 23.7834 6.7567 23.7834C6.08036 22.0653 5.10288 21.6137 5.10288 21.6137C3.75021 20.6958 5.20409 20.713 5.20409 20.713C6.7024 20.8185 7.48981 22.2421 7.48981 22.2421C8.8178 24.5074 10.9776 23.8521 11.8267 23.4692C11.96 22.5096 12.3476 21.8567 12.7746 21.4861C9.46204 21.1131 5.98162 19.8417 5.98162 14.1624C5.96109 12.6895 6.51079 11.2651 7.51696 10.1839C7.36392 9.81084 6.85296 8.30387 7.66259 6.25695C7.66259 6.25695 8.91407 5.85935 11.7626 7.77619C14.2058 7.11183 16.7837 7.11183 19.2269 7.77619C22.073 5.85935 23.322 6.25695 23.322 6.25695C24.1341 8.29896 23.6231 9.80593 23.4701 10.1839C24.4795 11.2653 25.0303 12.6921 25.0079 14.1673C25.0079 19.8589 21.5201 21.1131 18.2026 21.4788C18.7357 21.9402 19.2121 22.8409 19.2121 24.2252C19.2121 26.2083 19.1949 27.8036 19.1949 28.292C19.1949 28.6871 19.4639 29.1486 20.2192 29.0038C23.5762 27.8891 26.4249 25.6234 28.2558 22.6118C30.0867 19.6002 30.7804 16.0392 30.2129 12.5657C29.6454 9.09214 27.8536 5.93264 25.158 3.65225C22.4624 1.37187 19.0389 0.119325 15.4997 0.118652H15.4948Z" fill="#191717"/>
<path d="M6.23295 21.4003C6.20086 21.4739 6.08238 21.496 5.98611 21.4445C5.88984 21.3929 5.81826 21.2972 5.85282 21.2211C5.88738 21.145 6.00339 21.1254 6.09966 21.1769C6.19593 21.2285 6.26997 21.3266 6.23295 21.4003Z" fill="#191717"/>
<path d="M6.83784 22.0702C6.78672 22.0958 6.72824 22.103 6.6724 22.0905C6.61657 22.0779 6.56686 22.0465 6.53176 22.0015C6.4355 21.8984 6.41574 21.7561 6.48979 21.6923C6.56384 21.6285 6.69715 21.6579 6.79341 21.761C6.88968 21.8641 6.91189 22.0064 6.83784 22.0702Z" fill="#191717"/>
<path d="M7.42538 22.9218C7.33405 22.9856 7.17853 22.9218 7.09214 22.7942C7.06825 22.7713 7.04926 22.7438 7.03628 22.7135C7.0233 22.6831 7.0166 22.6505 7.0166 22.6175C7.0166 22.5845 7.0233 22.5518 7.03628 22.5215C7.04926 22.4911 7.06825 22.4637 7.09214 22.4408C7.18347 22.3794 7.33899 22.4408 7.42538 22.5659C7.51177 22.6911 7.51424 22.858 7.42538 22.9218V22.9218Z" fill="#191717"/>
<path d="M8.22252 23.7466C8.14106 23.8374 7.97568 23.8129 7.83992 23.6902C7.70416 23.5675 7.67206 23.4006 7.75352 23.3122C7.83498 23.2239 8.00036 23.2484 8.14106 23.3687C8.28175 23.4889 8.30891 23.6583 8.22252 23.7466V23.7466Z" fill="#191717"/>
<path d="M9.34066 24.2277C9.30364 24.343 9.13579 24.3946 8.96794 24.3455C8.80009 24.2964 8.68901 24.159 8.7211 24.0411C8.75319 23.9233 8.92351 23.8693 9.09383 23.9233C9.26414 23.9773 9.37275 24.1074 9.34066 24.2277Z" fill="#191717"/>
<path d="M10.5602 24.311C10.5602 24.4313 10.422 24.5343 10.2443 24.5368C10.0665 24.5393 9.9209 24.4411 9.9209 24.3208C9.9209 24.2006 10.0591 24.0975 10.2368 24.095C10.4146 24.0926 10.5602 24.1883 10.5602 24.311Z" fill="#191717"/>
<path d="M11.6955 24.1221C11.7177 24.2423 11.5943 24.3675 11.4165 24.397C11.2388 24.4264 11.0833 24.3552 11.0611 24.2374C11.0389 24.1196 11.1672 23.992 11.34 23.9601C11.5128 23.9282 11.6733 24.0018 11.6955 24.1221Z" fill="#191717"/>
</svg>
