<svg width="19" height="19" viewBox="0 0 19 19" fill="none" xmlns="http://www.w3.org/2000/svg">
<g clip-path="url(#clip0_240_69)">
<path d="M0.75 2.95331C0.75 2.39024 0.947078 1.92571 1.34122 1.55973C1.73535 1.19373 2.24775 1.01074 2.87838 1.01074C3.49775 1.01074 3.99887 1.19091 4.38176 1.55128C4.7759 1.9229 4.97297 2.40713 4.97297 3.00399C4.97297 3.54453 4.78154 3.99496 4.39865 4.35534C4.00451 4.72696 3.48649 4.91277 2.84459 4.91277H2.8277C2.20833 4.91277 1.70721 4.72696 1.32432 4.35534C0.941436 3.98371 0.75 3.51637 0.75 2.95331ZM0.969595 17.7337V6.44993H4.71959V17.7337H0.969595ZM6.7973 17.7337H10.5473V11.433C10.5473 11.0389 10.5923 10.7348 10.6824 10.5209C10.8401 10.138 11.0794 9.81422 11.4003 9.54959C11.7213 9.28495 12.1239 9.15263 12.6081 9.15263C13.8694 9.15263 14.5 10.0029 14.5 11.7033V17.7337H18.25V11.2641C18.25 9.59745 17.8559 8.33338 17.0676 7.47189C16.2793 6.6104 15.2376 6.17966 13.9426 6.17966C12.4899 6.17966 11.3581 6.80466 10.5473 8.05466V8.08844H10.5304L10.5473 8.05466V6.44993H6.7973C6.81981 6.81029 6.83108 7.93078 6.83108 9.81142C6.83108 11.692 6.81981 14.3328 6.7973 17.7337Z" fill="white"/>
</g>
<defs>
<clipPath id="clip0_240_69">
<rect x="0.75" y="0.618652" width="17.5" height="17.5" fill="white"/>
</clipPath>
</defs>
</svg>
