<svg width="27" height="28" viewBox="0 0 27 28" fill="none" xmlns="http://www.w3.org/2000/svg">
<path d="M10.2067 3.0687L11.9451 2.1988L13.7202 1.55332L15.499 1.14432L17.2485 0.978638L18.9359 1.06042L20.5291 1.38763L21.9995 1.95393L23.3193 2.74937L24.4637 3.75875L25.4114 4.96319L26.1452 6.34013L26.6509 7.86443L26.9195 9.50775L26.9461 11.2386L26.7296 13.0256L26.2744 14.8352L25.5884 16.6332L24.6855 18.3871L23.582 20.0635L22.2983 21.6313L20.8583 23.0612L19.2884 24.327L17.6192 25.4051L15.8808 26.2744L14.1052 26.9199L12.3264 27.3289L10.5774 27.4946L8.89008 27.4128L7.29686 27.0856L5.82648 26.5193L4.50661 25.7239L3.36224 24.7145L2.41407 23.5101L1.68076 22.1331L1.1745 20.6088L0.905946 18.9655L0.879883 17.2346L1.09634 15.4476L1.55152 13.6381L2.23698 11.8401L3.13994 10.0861L4.24394 8.40976L5.52765 6.84193L6.96771 5.41203L8.53698 4.14624L10.2067 3.0687Z" fill="#F8CD79"/>
</svg>
