<svg width="9" height="10" viewBox="0 0 9 10" fill="none" xmlns="http://www.w3.org/2000/svg">
<path d="M3.4008 1.46681L3.9799 1.1769L4.57176 0.961755L5.16472 0.82537L5.74807 0.770264L6.31016 0.797475L6.84139 0.90654L7.33169 1.09536L7.77148 1.36042L8.15276 1.69685L8.46918 2.09834L8.71326 2.55741L8.88236 3.06551L8.97171 3.61314L8.98022 4.19019L8.90842 4.7858L8.75633 5.38897L8.52819 5.98841L8.22721 6.57301L7.85921 7.13181L7.43114 7.65438L6.95093 8.13112L6.42821 8.55301L5.87144 8.91225L5.29179 9.20211L4.70045 9.4173L4.107 9.55369L3.52417 9.6088L2.96156 9.58153L2.43082 9.47252L1.94052 9.2837L1.50076 9.01859L1.11893 8.68216L0.803061 8.28072L0.558431 7.82165L0.389882 7.31355L0.300527 6.76586L0.291504 6.18887L0.363818 5.5932L0.515361 4.99004L0.744021 4.3906L1.04503 3.80605L1.413 3.24725L1.84111 2.72463L2.32076 2.24794L2.84403 1.82605L3.4008 1.46681Z" fill="#0462EE"/>
</svg>
