<svg width="13" height="13" viewBox="0 0 13 13" fill="none" xmlns="http://www.w3.org/2000/svg">
<path d="M4.87215 1.72278L5.65599 1.33055L6.45684 1.03954L7.25876 0.854975L8.04792 0.780518L8.80836 0.81721L9.52732 0.964556L10.1905 1.22044L10.7855 1.5791L11.3013 2.03424L11.7289 2.57747L12.0602 3.1983L12.2883 3.88573L12.409 4.62664L12.4213 5.40739L12.3234 6.21333L12.1181 7.02922L11.8092 7.84039L11.4018 8.63111L10.9041 9.38724L10.325 10.0941L9.67571 10.739L8.96789 11.31L8.21491 11.7961L7.43107 12.1883L6.63019 12.4793L5.82776 12.6639L5.03911 12.7384L4.27815 12.7017L3.55972 12.5543L2.89658 12.2984L2.30155 11.9398L1.78519 11.4846L1.35763 10.9414L1.02686 10.3206L0.798716 9.63316L0.677489 8.89225L0.665771 8.11148L0.76363 7.30556L0.968889 6.48967L1.27785 5.67848L1.68522 4.88776L2.18295 4.13165L2.76205 3.42483L3.41135 2.77987L4.11915 2.20885L4.87215 1.72278Z" fill="#FC7E0A"/>
</svg>
