<svg width="21" height="21" viewBox="0 0 21 21" fill="none" xmlns="http://www.w3.org/2000/svg">
<path d="M6.5823 2.39181C6.88807 0.70182 8.92797 -0.463818 10.0793 0.394022L12.5271 2.2172C12.978 2.55331 13.6284 2.59421 14.2771 2.32836L17.8012 0.882718C19.4588 0.203158 20.6638 1.57434 19.8667 3.23339L18.1729 6.76124C17.8608 7.41091 17.8427 8.08942 18.124 8.5865L19.6518 11.2869C20.3708 12.5574 19.0754 14.5704 17.4317 14.7382L13.9368 15.0948C13.2933 15.1603 12.6318 15.5384 12.1564 16.112L9.57677 19.2261C8.36378 20.6912 6.35843 20.5643 6.13881 19.0085L5.67298 15.7014C5.58736 15.0921 5.19648 14.6475 4.62163 14.5049L1.49958 13.7288C0.0308042 13.3639 0.0866371 11.2722 1.59529 10.1433L4.80193 7.74282C5.39273 7.30079 5.81229 6.64745 5.93248 5.98572L6.5823 2.39181Z" fill="#CC42EE"/>
</svg>
