<svg width="38" height="39" viewBox="0 0 38 39" fill="none" xmlns="http://www.w3.org/2000/svg">
<path d="M13.7397 2.47582C14.0454 0.785309 16.0853 -0.380329 17.2366 0.477512L23.9854 5.50499C24.4364 5.8411 25.0867 5.88201 25.7355 5.61616L35.4511 1.63108C37.1086 0.951517 38.3136 2.32217 37.5165 3.98175L32.8464 13.708C32.5343 14.3576 32.5162 15.0356 32.7975 15.5332L37.0097 22.9785C37.7287 24.249 36.4333 26.262 34.7896 26.4298L25.1543 27.413C24.5103 27.4785 23.8488 27.8566 23.3739 28.4302L16.2619 37.0165C15.0484 38.4815 13.043 38.3546 12.8239 36.7989L11.5392 27.6804C11.4535 27.0716 11.0627 26.627 10.4878 26.4838L1.87994 24.345C0.411171 23.98 0.467012 21.8884 1.97567 20.7595L10.817 14.1406C11.4073 13.6985 11.8274 13.0457 11.947 12.384L13.7397 2.47582Z" fill="white"/>
</svg>
