<svg width="21" height="21" viewBox="0 0 21 21" fill="none" xmlns="http://www.w3.org/2000/svg">
<path d="M7.09636 10.2624C7.09636 8.44108 8.57243 6.96422 10.3938 6.96422C12.2151 6.96422 13.6919 8.44108 13.6919 10.2624C13.6919 12.0837 12.2151 13.5606 10.3938 13.5606C8.57243 13.5606 7.09636 12.0837 7.09636 10.2624M5.31343 10.2624C5.31343 13.0683 7.58788 15.3427 10.3938 15.3427C13.1996 15.3427 15.4741 13.0683 15.4741 10.2624C15.4741 7.45654 13.1996 5.18208 10.3938 5.18208C7.58788 5.18208 5.31351 7.45638 5.31351 10.2624M14.488 4.98064C14.4879 5.21546 14.5575 5.44503 14.6878 5.64032C14.8182 5.83562 15.0036 5.98787 15.2205 6.07781C15.4374 6.16776 15.6761 6.19137 15.9064 6.14565C16.1367 6.09993 16.3483 5.98694 16.5144 5.82097C16.6806 5.65499 16.7937 5.44349 16.8396 5.21321C16.8855 4.98292 16.8621 4.74419 16.7723 4.52722C16.6826 4.31024 16.5305 4.12476 16.3353 3.99422C16.1401 3.86369 15.9106 3.79396 15.6757 3.79387H15.6753C15.3605 3.79402 15.0587 3.91908 14.8361 4.1416C14.6135 4.36412 14.4883 4.66589 14.488 4.98064M6.39668 18.3158C5.43207 18.2718 4.90778 18.1112 4.55937 17.9754C4.09745 17.7956 3.76787 17.5814 3.42135 17.2354C3.07483 16.8893 2.86033 16.5601 2.68129 16.0981C2.54547 15.7499 2.3848 15.2254 2.34095 14.2608C2.29299 13.2179 2.28341 12.9047 2.28341 10.2626C2.28341 7.62046 2.29378 7.30805 2.34095 6.2643C2.38488 5.2997 2.54674 4.77628 2.68129 4.42699C2.86112 3.96507 3.0753 3.63549 3.42135 3.28897C3.76739 2.94245 4.09666 2.72796 4.55937 2.54892C4.90763 2.4131 5.43207 2.25242 6.39668 2.20857C7.43956 2.16061 7.75283 2.15103 10.3938 2.15103C13.0347 2.15103 13.3483 2.16124 14.392 2.20873C15.3566 2.25266 15.88 2.41452 16.2293 2.54908C16.6912 2.72811 17.0208 2.94309 17.3673 3.28913C17.7139 3.63517 17.9276 3.96523 18.1074 4.42715C18.2432 4.77541 18.4039 5.29986 18.4477 6.26446C18.4957 7.30821 18.5053 7.62061 18.5053 10.2627C18.5053 12.9048 18.4957 13.2172 18.4477 14.261C18.4038 15.2256 18.2423 15.7499 18.1074 16.0983C17.9276 16.5602 17.7134 16.8898 17.3673 17.2355C17.0213 17.5812 16.6912 17.7957 16.2293 17.9756C15.8811 18.1114 15.3566 18.2721 14.392 18.3159C13.3491 18.3639 13.0359 18.3735 10.3938 18.3735C7.75164 18.3735 7.43924 18.3639 6.39668 18.3159M6.31476 0.428569C5.26151 0.476534 4.5418 0.64354 3.91326 0.888114C3.26273 1.14068 2.71129 1.47952 2.16065 2.0293C1.61 2.57907 1.27203 3.13059 1.01946 3.78192C0.774888 4.41084 0.607882 5.13016 0.559917 6.18341C0.51116 7.23832 0.5 7.57558 0.5 10.2624C0.5 12.9492 0.51116 13.2865 0.559917 14.3414C0.607882 15.3947 0.774888 16.114 1.01946 16.7429C1.27203 17.3934 1.61008 17.946 2.16065 18.4955C2.71121 19.045 3.26194 19.3834 3.91326 19.6367C4.54298 19.8813 5.26151 20.0483 6.31476 20.0962C7.37022 20.1442 7.70692 20.1562 10.3938 20.1562C13.0806 20.1562 13.4178 20.145 14.4727 20.0962C15.5261 20.0483 16.2453 19.8813 16.8742 19.6367C17.5248 19.3834 18.0762 19.0453 18.6269 18.4955C19.1775 17.9457 19.5148 17.3934 19.768 16.7429C20.0126 16.114 20.1804 15.3946 20.2276 14.3414C20.2755 13.2857 20.2867 12.9492 20.2867 10.2624C20.2867 7.57558 20.2755 7.23832 20.2276 6.18341C20.1796 5.13008 20.0126 4.41045 19.768 3.78192C19.5148 3.13138 19.1766 2.57995 18.6269 2.0293C18.0771 1.47865 17.5248 1.14068 16.875 0.888114C16.2453 0.64354 15.526 0.475742 14.4735 0.428569C13.4185 0.380367 13.0814 0.368652 10.3949 0.368652C7.70851 0.368652 7.37062 0.379813 6.31515 0.428569" fill="white"/>
</svg>
