<svg width="40" height="41" viewBox="0 0 40 41" fill="none" xmlns="http://www.w3.org/2000/svg">
<path d="M35.3091 12.3603C36.4849 15.9028 36.035 20.2014 34.0594 24.3108C32.0839 28.4196 28.7438 32.0025 24.7735 34.2709C20.8038 36.5397 16.5294 37.3074 12.891 36.4065C9.25253 35.5052 6.54791 33.0087 5.37268 29.4662C4.19691 25.9232 4.64627 21.6245 6.62182 17.5157C8.59791 13.4063 11.938 9.82344 15.9077 7.55509C17.3297 6.74234 18.7751 6.13515 20.196 5.72038L22.2635 1.4207C19.8269 1.85905 17.3068 2.78296 14.7995 4.2155C12.3422 5.61971 10.0529 7.44183 8.06136 9.57804C6.06932 11.7143 4.41496 14.1226 3.1924 16.6662C0.722822 21.8023 0.160726 27.1758 1.63056 31.6045C3.09986 36.0327 6.48089 39.1536 11.0287 40.2799C13.2807 40.8378 15.7514 40.8887 18.3002 40.4309C20.8485 39.9732 23.425 39.0147 25.8818 37.6104C30.8443 34.7753 35.0193 30.2963 37.4894 25.1602C39.959 20.0237 40.5206 14.6501 39.0513 10.2219L35.3091 12.3603ZM11.6242 22.0797L9.77315 25.9583L20.6863 28.6613L33.8552 1.2723L30.4301 0.408691L19.1181 23.9359L11.6242 22.0797Z" fill="#CC42EE"/>
</svg>
