<svg width="18" height="16" viewBox="0 0 18 16" fill="none" xmlns="http://www.w3.org/2000/svg">
<path d="M5.75504 15.2811C12.4075 15.2811 16.045 9.76856 16.045 4.99106C16.045 4.83356 16.045 4.67606 16.0375 4.52606C16.7425 4.01606 17.3575 3.37856 17.845 2.65106C17.2 2.93606 16.5025 3.13105 15.7675 3.22105C16.5175 2.77105 17.0875 2.06605 17.3575 1.21855C16.66 1.63105 15.8875 1.93105 15.0625 2.09605C14.4025 1.39105 13.465 0.956055 12.4225 0.956055C10.4275 0.956055 8.80754 2.57605 8.80754 4.57105C8.80754 4.85605 8.83754 5.13355 8.90504 5.39605C5.89754 5.24605 3.23504 3.80606 1.45004 1.61605C1.14254 2.14855 0.962539 2.77105 0.962539 3.43105C0.962539 4.68355 1.60004 5.79356 2.57504 6.43856C1.98254 6.42356 1.42754 6.25856 0.940039 5.98856C0.940039 6.00356 0.940039 6.01855 0.940039 6.03355C0.940039 7.78855 2.18504 9.24356 3.84254 9.58106C3.54254 9.66356 3.22004 9.70855 2.89004 9.70855C2.65754 9.70855 2.43254 9.68606 2.20754 9.64106C2.66504 11.0811 4.00004 12.1236 5.58254 12.1536C4.34504 13.1211 2.78504 13.6986 1.09004 13.6986C0.797539 13.6986 0.512539 13.6836 0.227539 13.6461C1.81004 14.6811 3.71504 15.2811 5.75504 15.2811Z" fill="white"/>
</svg>
