<svg width="26" height="15" viewBox="0 0 26 15" fill="none" xmlns="http://www.w3.org/2000/svg">
<path fill-rule="evenodd" clip-rule="evenodd" d="M0.75922 7.40269C0.776237 7.58568 0.911303 7.75819 1.1389 7.88771L2.98844 8.94115L12.1813 14.1757C12.9444 14.6104 14.1813 14.6104 14.9444 14.1757L24.468 8.7529L25.556 8.13311C25.8108 7.98839 25.9485 7.78965 25.9368 7.58463L25.9166 7.22702C25.9059 7.03877 25.7698 6.85947 25.5358 6.72628L23.6969 5.67915L14.5041 0.444519C13.7415 0.0103555 12.5041 0.0103555 11.7415 0.444519L2.21736 5.86791L1.10752 6.49976C0.846415 6.64867 0.70869 6.85318 0.727834 7.06344L0.75922 7.40269Z" fill="#9E9EA7"/>
</svg>
