<svg width="31" height="31" viewBox="0 0 31 31" fill="none" xmlns="http://www.w3.org/2000/svg">
<path d="M8.10722 30.2626C6.3231 30.1814 5.35392 29.8845 4.70929 29.6331C3.85513 29.3005 3.24616 28.9046 2.60509 28.2645C1.96402 27.6243 1.56726 27.0153 1.23647 26.1611C0.985036 25.5165 0.68813 24.5473 0.606993 22.7632C0.517832 20.8347 0.5 20.256 0.5 15.37C0.5 10.484 0.519615 9.9062 0.606102 7.97587C0.687238 6.19176 0.985927 5.22436 1.23558 4.57794C1.56815 3.72378 1.96492 3.11481 2.6042 2.47285C3.24438 1.83268 3.85335 1.43502 4.7084 1.10423C5.35303 0.852797 6.32221 0.55589 8.10632 0.474754C10.0358 0.386485 10.6153 0.368652 15.4996 0.368652C20.3856 0.368652 20.9633 0.388268 22.8937 0.474754C24.6778 0.55589 25.6452 0.85458 26.2916 1.10423C27.1458 1.43502 27.7547 1.83268 28.3958 2.47285C29.0369 3.11303 29.4319 3.72289 29.7644 4.57705C30.0159 5.22169 30.3128 6.19087 30.3939 7.97498C30.4822 9.90531 30.5 10.4831 30.5 15.3691C30.5 20.2533 30.4822 20.8329 30.3939 22.7632C30.3128 24.5473 30.0141 25.5165 29.7644 26.1611C29.4319 27.0153 29.036 27.6243 28.3958 28.2645C27.7556 28.9046 27.1458 29.3005 26.2916 29.6331C25.647 29.8845 24.6778 30.1814 22.8937 30.2626C20.9651 30.3508 20.3856 30.3687 15.4996 30.3687C10.6153 30.3687 10.0358 30.3517 8.10722 30.2626" fill="url(#paint0_radial_240_538)"/>
<defs>
<radialGradient id="paint0_radial_240_538" cx="0" cy="0" r="1" gradientUnits="userSpaceOnUse" gradientTransform="translate(2.44157 29.7114) scale(38.0889)">
<stop offset="0.09" stop-color="#FA8F21"/>
<stop offset="0.78" stop-color="#D82D7E"/>
</radialGradient>
</defs>
</svg>
